<mxfile host="app.diagrams.net" modified="2024-07-16T15:37:19.722Z" agent="Mozilla/5.0 (X11; Linux x86_64) AppleWebKit/537.36 (KHTML, like Gecko) Chrome/126.0.0.0 Safari/537.36" etag="iy6bCjRT3PRj5c_1Ji9r" version="24.6.5" type="device">
  <diagram name="Page-1" id="p7XQJasqbA5sBhm3xqfU">
    <mxGraphModel dx="854" dy="579" grid="1" gridSize="10" guides="1" tooltips="1" connect="1" arrows="1" fold="1" page="1" pageScale="1" pageWidth="850" pageHeight="1100" background="none" math="0" shadow="0">
      <root>
        <mxCell id="0" />
        <mxCell id="1" parent="0" />
        <mxCell id="HDpdUE3BCuK8sNokuzXL-4" value="" style="rounded=0;whiteSpace=wrap;html=1;fillColor=#fff2cc;strokeColor=#d6b656;" vertex="1" parent="1">
          <mxGeometry x="120" y="80" width="120" height="160" as="geometry" />
        </mxCell>
        <mxCell id="HDpdUE3BCuK8sNokuzXL-10" value="" style="endArrow=none;html=1;rounded=0;" edge="1" parent="1">
          <mxGeometry width="50" height="50" relative="1" as="geometry">
            <mxPoint x="100" y="160" as="sourcePoint" />
            <mxPoint x="260" y="160" as="targetPoint" />
            <Array as="points">
              <mxPoint x="165" y="159.5" />
            </Array>
          </mxGeometry>
        </mxCell>
        <mxCell id="HDpdUE3BCuK8sNokuzXL-17" value="" style="endArrow=none;html=1;rounded=0;" edge="1" parent="1">
          <mxGeometry width="50" height="50" relative="1" as="geometry">
            <mxPoint x="120" y="130" as="sourcePoint" />
            <mxPoint x="240" y="130" as="targetPoint" />
          </mxGeometry>
        </mxCell>
        <mxCell id="HDpdUE3BCuK8sNokuzXL-19" value="" style="endArrow=none;html=1;rounded=0;" edge="1" parent="1">
          <mxGeometry width="50" height="50" relative="1" as="geometry">
            <mxPoint x="120" y="190" as="sourcePoint" />
            <mxPoint x="240" y="190" as="targetPoint" />
          </mxGeometry>
        </mxCell>
        <mxCell id="HDpdUE3BCuK8sNokuzXL-20" value="" style="shape=umlActor;verticalLabelPosition=bottom;verticalAlign=top;html=1;outlineConnect=0;" vertex="1" parent="1">
          <mxGeometry x="70" y="142.5" width="20" height="35" as="geometry" />
        </mxCell>
        <mxCell id="HDpdUE3BCuK8sNokuzXL-21" value="" style="rounded=0;whiteSpace=wrap;html=1;fillColor=#fff2cc;strokeColor=#d6b656;" vertex="1" parent="1">
          <mxGeometry x="120" y="280" width="120" height="160" as="geometry" />
        </mxCell>
        <mxCell id="HDpdUE3BCuK8sNokuzXL-22" value="" style="endArrow=none;html=1;rounded=0;" edge="1" parent="1">
          <mxGeometry width="50" height="50" relative="1" as="geometry">
            <mxPoint x="100" y="350" as="sourcePoint" />
            <mxPoint x="260" y="350" as="targetPoint" />
            <Array as="points">
              <mxPoint x="165" y="349.5" />
            </Array>
          </mxGeometry>
        </mxCell>
        <mxCell id="HDpdUE3BCuK8sNokuzXL-23" value="" style="endArrow=none;html=1;rounded=0;" edge="1" parent="1">
          <mxGeometry width="50" height="50" relative="1" as="geometry">
            <mxPoint x="120" y="320" as="sourcePoint" />
            <mxPoint x="240" y="320" as="targetPoint" />
          </mxGeometry>
        </mxCell>
        <mxCell id="HDpdUE3BCuK8sNokuzXL-24" value="" style="endArrow=none;html=1;rounded=0;" edge="1" parent="1">
          <mxGeometry width="50" height="50" relative="1" as="geometry">
            <mxPoint x="120" y="380" as="sourcePoint" />
            <mxPoint x="240" y="380" as="targetPoint" />
          </mxGeometry>
        </mxCell>
        <mxCell id="HDpdUE3BCuK8sNokuzXL-25" value="" style="shape=umlActor;verticalLabelPosition=bottom;verticalAlign=top;html=1;outlineConnect=0;" vertex="1" parent="1">
          <mxGeometry x="70" y="332.5" width="20" height="35" as="geometry" />
        </mxCell>
        <mxCell id="HDpdUE3BCuK8sNokuzXL-26" value="" style="rounded=0;whiteSpace=wrap;html=1;fillColor=#fff2cc;strokeColor=#d6b656;" vertex="1" parent="1">
          <mxGeometry x="320" y="80" width="120" height="160" as="geometry" />
        </mxCell>
        <mxCell id="HDpdUE3BCuK8sNokuzXL-27" value="" style="endArrow=none;html=1;rounded=0;" edge="1" parent="1">
          <mxGeometry width="50" height="50" relative="1" as="geometry">
            <mxPoint x="300" y="160" as="sourcePoint" />
            <mxPoint x="460" y="160" as="targetPoint" />
            <Array as="points">
              <mxPoint x="365" y="159.5" />
            </Array>
          </mxGeometry>
        </mxCell>
        <mxCell id="HDpdUE3BCuK8sNokuzXL-28" value="" style="endArrow=none;html=1;rounded=0;" edge="1" parent="1">
          <mxGeometry width="50" height="50" relative="1" as="geometry">
            <mxPoint x="320" y="130" as="sourcePoint" />
            <mxPoint x="440" y="130" as="targetPoint" />
          </mxGeometry>
        </mxCell>
        <mxCell id="HDpdUE3BCuK8sNokuzXL-29" value="" style="endArrow=none;html=1;rounded=0;" edge="1" parent="1">
          <mxGeometry width="50" height="50" relative="1" as="geometry">
            <mxPoint x="320" y="190" as="sourcePoint" />
            <mxPoint x="440" y="190" as="targetPoint" />
          </mxGeometry>
        </mxCell>
        <mxCell id="HDpdUE3BCuK8sNokuzXL-30" value="" style="shape=umlActor;verticalLabelPosition=bottom;verticalAlign=top;html=1;outlineConnect=0;" vertex="1" parent="1">
          <mxGeometry x="470" y="142.5" width="20" height="35" as="geometry" />
        </mxCell>
        <mxCell id="HDpdUE3BCuK8sNokuzXL-31" value="" style="rounded=0;whiteSpace=wrap;html=1;fillColor=#fff2cc;strokeColor=#d6b656;" vertex="1" parent="1">
          <mxGeometry x="320" y="280" width="120" height="160" as="geometry" />
        </mxCell>
        <mxCell id="HDpdUE3BCuK8sNokuzXL-32" value="" style="endArrow=none;html=1;rounded=0;" edge="1" parent="1">
          <mxGeometry width="50" height="50" relative="1" as="geometry">
            <mxPoint x="300" y="360" as="sourcePoint" />
            <mxPoint x="460" y="360" as="targetPoint" />
            <Array as="points">
              <mxPoint x="365" y="359.5" />
            </Array>
          </mxGeometry>
        </mxCell>
        <mxCell id="HDpdUE3BCuK8sNokuzXL-33" value="" style="endArrow=none;html=1;rounded=0;" edge="1" parent="1">
          <mxGeometry width="50" height="50" relative="1" as="geometry">
            <mxPoint x="320" y="330" as="sourcePoint" />
            <mxPoint x="440" y="330" as="targetPoint" />
            <Array as="points">
              <mxPoint x="370" y="330" />
            </Array>
          </mxGeometry>
        </mxCell>
        <mxCell id="HDpdUE3BCuK8sNokuzXL-34" value="" style="endArrow=none;html=1;rounded=0;" edge="1" parent="1">
          <mxGeometry width="50" height="50" relative="1" as="geometry">
            <mxPoint x="320" y="390" as="sourcePoint" />
            <mxPoint x="440" y="390" as="targetPoint" />
          </mxGeometry>
        </mxCell>
        <mxCell id="HDpdUE3BCuK8sNokuzXL-35" value="" style="shape=umlActor;verticalLabelPosition=bottom;verticalAlign=top;html=1;outlineConnect=0;" vertex="1" parent="1">
          <mxGeometry x="470" y="342.5" width="20" height="35" as="geometry" />
        </mxCell>
        <mxCell id="HDpdUE3BCuK8sNokuzXL-36" value="Court 1" style="text;html=1;align=center;verticalAlign=middle;whiteSpace=wrap;rounded=0;" vertex="1" parent="1">
          <mxGeometry x="150" y="50" width="60" height="30" as="geometry" />
        </mxCell>
        <mxCell id="HDpdUE3BCuK8sNokuzXL-37" value="Court 2" style="text;html=1;align=center;verticalAlign=middle;whiteSpace=wrap;rounded=0;" vertex="1" parent="1">
          <mxGeometry x="350" y="50" width="60" height="30" as="geometry" />
        </mxCell>
        <mxCell id="HDpdUE3BCuK8sNokuzXL-38" value="Court 3" style="text;html=1;align=center;verticalAlign=middle;whiteSpace=wrap;rounded=0;" vertex="1" parent="1">
          <mxGeometry x="150" y="440" width="60" height="30" as="geometry" />
        </mxCell>
        <mxCell id="HDpdUE3BCuK8sNokuzXL-39" value="Court 4" style="text;html=1;align=center;verticalAlign=middle;whiteSpace=wrap;rounded=0;" vertex="1" parent="1">
          <mxGeometry x="350" y="440" width="60" height="30" as="geometry" />
        </mxCell>
        <mxCell id="HDpdUE3BCuK8sNokuzXL-144" value="" style="childLayout=tableLayout;recursiveResize=0;shadow=0;fillColor=#f5f5f5;fontColor=#333333;strokeColor=#666666;" vertex="1" parent="1">
          <mxGeometry x="520" y="210" width="120" height="90" as="geometry" />
        </mxCell>
        <mxCell id="HDpdUE3BCuK8sNokuzXL-145" value="" style="shape=tableRow;horizontal=0;startSize=0;swimlaneHead=0;swimlaneBody=0;top=0;left=0;bottom=0;right=0;dropTarget=0;collapsible=0;recursiveResize=0;expand=0;fontStyle=0;fillColor=none;strokeColor=inherit;" vertex="1" parent="HDpdUE3BCuK8sNokuzXL-144">
          <mxGeometry width="120" height="45" as="geometry" />
        </mxCell>
        <mxCell id="HDpdUE3BCuK8sNokuzXL-146" value="18:11" style="connectable=0;recursiveResize=0;strokeColor=inherit;fillColor=none;align=center;whiteSpace=wrap;html=1;" vertex="1" parent="HDpdUE3BCuK8sNokuzXL-145">
          <mxGeometry width="60" height="45" as="geometry">
            <mxRectangle width="60" height="45" as="alternateBounds" />
          </mxGeometry>
        </mxCell>
        <mxCell id="HDpdUE3BCuK8sNokuzXL-147" value="5:0" style="connectable=0;recursiveResize=0;strokeColor=inherit;fillColor=none;align=center;whiteSpace=wrap;html=1;" vertex="1" parent="HDpdUE3BCuK8sNokuzXL-145">
          <mxGeometry x="60" width="60" height="45" as="geometry">
            <mxRectangle width="60" height="45" as="alternateBounds" />
          </mxGeometry>
        </mxCell>
        <mxCell id="HDpdUE3BCuK8sNokuzXL-149" style="shape=tableRow;horizontal=0;startSize=0;swimlaneHead=0;swimlaneBody=0;top=0;left=0;bottom=0;right=0;dropTarget=0;collapsible=0;recursiveResize=0;expand=0;fontStyle=0;fillColor=none;strokeColor=inherit;" vertex="1" parent="HDpdUE3BCuK8sNokuzXL-144">
          <mxGeometry y="45" width="120" height="45" as="geometry" />
        </mxCell>
        <mxCell id="HDpdUE3BCuK8sNokuzXL-150" value="0:0" style="connectable=0;recursiveResize=0;strokeColor=inherit;fillColor=none;align=center;whiteSpace=wrap;html=1;" vertex="1" parent="HDpdUE3BCuK8sNokuzXL-149">
          <mxGeometry width="60" height="45" as="geometry">
            <mxRectangle width="60" height="45" as="alternateBounds" />
          </mxGeometry>
        </mxCell>
        <mxCell id="HDpdUE3BCuK8sNokuzXL-151" value="0:0" style="connectable=0;recursiveResize=0;strokeColor=inherit;fillColor=none;align=center;whiteSpace=wrap;html=1;" vertex="1" parent="HDpdUE3BCuK8sNokuzXL-149">
          <mxGeometry x="60" width="60" height="45" as="geometry">
            <mxRectangle width="60" height="45" as="alternateBounds" />
          </mxGeometry>
        </mxCell>
        <mxCell id="HDpdUE3BCuK8sNokuzXL-160" value="" style="shape=umlActor;verticalLabelPosition=bottom;verticalAlign=top;html=1;outlineConnect=0;" vertex="1" parent="1">
          <mxGeometry x="650" y="237.5" width="20" height="35" as="geometry" />
        </mxCell>
        <mxCell id="HDpdUE3BCuK8sNokuzXL-162" value="Scoreboad" style="text;html=1;align=center;verticalAlign=middle;whiteSpace=wrap;rounded=0;" vertex="1" parent="1">
          <mxGeometry x="550" y="180" width="60" height="30" as="geometry" />
        </mxCell>
      </root>
    </mxGraphModel>
  </diagram>
</mxfile>
